<svg width="32" height="26" viewBox="0 0 32 26" fill="none" xmlns="http://www.w3.org/2000/svg">
<path d="M9.58273 3.28077H7.11446L4.37433 22.7191H6.8426L6.51556 25.1898H0.758057L4.15765 0.810059H9.91649L9.58273 3.28077Z" fill="black"/>
<path d="M23.1463 22.7191H25.6146L28.3547 3.28077H25.8865L26.2135 0.810059H31.9723L28.5727 25.1898H22.8408L23.1463 22.7191Z" fill="black"/>
<path d="M22.1733 8.14487C21.9687 7.61409 21.6565 7.19242 21.2352 6.87853C20.8409 6.5862 20.3645 6.38143 19.814 6.24536L18.7131 14.1196C19.3457 13.9835 19.9029 13.7585 20.3927 13.4392C20.8826 13.12 21.2971 12.6902 21.6296 12.1527C21.9633 11.6152 22.1867 10.9483 22.3025 10.1522C22.425 9.34924 22.3765 8.68239 22.1733 8.14487Z" fill="black"/>
<path d="M15.3017 8.54601H15.3084L15.6691 6.00659H12.6706L10.7729 19.6197H13.7446L15.0837 10.1249L15.3017 8.54601Z" fill="black"/>
</svg>
