<svg width="31" height="21" viewBox="0 0 31 21" fill="none" xmlns="http://www.w3.org/2000/svg">
<path fill-rule="evenodd" clip-rule="evenodd" d="M20.9714 1.59809C26.4569 4.0946 30.4233 9.39795 30.6343 9.69414H30.6202L31 10.216L30.6343 10.752C30.3671 11.1469 23.8689 20.456 15.5 20.456C7.13113 20.456 0.63294 11.1469 0.365699 10.752L0 10.216L0.379764 9.69414C0.382615 9.69039 0.386116 9.68577 0.390262 9.6803C0.713397 9.25374 4.95444 3.65537 10.7037 1.30189L12.4478 0.709494C13.1933 0.512029 13.9387 0.399192 14.7123 0.342773H14.8811H15.078L16.9065 0.399192C17.7083 0.497925 18.4959 0.69539 19.2554 0.935168L20.9714 1.59809ZM21.2949 7.94517C21.2949 4.74342 18.7069 2.14817 15.5141 2.14817C12.3212 2.14817 9.73321 4.74342 9.73321 7.94517C9.73321 11.1469 12.3212 13.7422 15.5141 13.7422C18.7069 13.7422 21.2949 11.1469 21.2949 7.94517ZM2.27858 10.2442C3.75544 12.1766 9.18466 18.6224 15.5141 18.6224V18.6083C21.8435 18.6083 27.2727 12.1625 28.7495 10.2301C27.8212 9.08764 25.3739 6.32314 22.2232 4.33438C22.7999 5.40633 23.1234 6.63344 23.1234 7.93107C23.1234 12.1342 19.7055 15.5617 15.5141 15.5617C11.3226 15.5617 7.90472 12.1342 7.90472 7.93107C7.90472 6.63344 8.22822 5.40633 8.8049 4.33438C5.65427 6.32314 3.2069 9.10175 2.27858 10.2442ZM18 7.5C18 6.11111 16.8657 5 15.5 5C14.1111 5 13 6.11111 13 7.5C13 8.88889 14.1111 10 15.5 10C16.8889 10 18 8.88889 18 7.5Z" fill="black"/>
</svg>
